# xmcd
#
# Track frame offsets:
#	150
#	19202
#	36829
#	60606
#	79433
#	104335
#	129162
#	147839
#	171241
#	187593
#
# Disc length: 2799 seconds
#
# Revision: 4292542479
# Processed by: cddbd v1.5.2PL0 Copyright (c) Steve Scherf et al.
# Submitted via: EZCDAudioConverter 8.0.2.1
#
DISCID=7f0aed0a
DTITLE=Ý Lan - Nhìn Những Mùa Thu Đi
DYEAR=1997
DGENRE=Miscellaneous
TTITLE0=Đường xa ướt mưa
TTITLE1=Ở trọ
TTITLE2=Tuổi biết buồn
TTITLE3=Mùa thu cho em
TTITLE4=Tình yêu lần cuối
TTITLE5=Nụ cười nào đó
TTITLE6=Nhìn Những Mùa Thu Đi
TTITLE7=Từ giọng hát em
TTITLE8=Khúc tình dối gian
TTITLE9=Tình nhớ
EXTD=
EXTT0=
EXTT1=
EXTT2=
EXTT3=
EXTT4=
EXTT5=
EXTT6=
EXTT7=
EXTT8=
EXTT9=
PLAYORDER=
